<svg xmlns="http://www.w3.org/2000/svg" xml:space="preserve" width="144.6mm" height="93.9905mm" version="1.1" style="shape-rendering:geometricPrecision; text-rendering:geometricPrecision; image-rendering:optimizeQuality; fill-rule:evenodd; clip-rule:evenodd"
viewBox="0 0 1021.27 663.83"
 xmlns:xlink="http://www.w3.org/1999/xlink"
 xmlns:xodm="http://www.corel.com/coreldraw/odm/2003">
 <defs>
  <style type="text/css">
   <![CDATA[
    .fil0 {fill:black}
   ]]>
  </style>
 </defs>
 <g id="Слой_x0020_1">
  <metadata id="CorelCorpID_0Corel-Layer"/>
  <g id="_1890661834080">
   <path class="fil0" d="M579.88 204.23l48.1 124.31c4.46,11.65 25.98,28.01 40.25,28.01l60.66 0 -67.74 -176.8 155.92 -179.76 -72.37 0c-11.22,0 -25.4,6.23 -32.41,14.31l-119.94 138.28 22.58 -93.44c3.11,-12.89 -16.3,-59.15 -72.34,-59.15 -56.04,0 -225.59,0 -338.39,0 -0,53.69 37.38,84.21 80.83,84.21 79.07,0 158.14,0 237.21,0 -21.94,90.78 -43.87,181.57 -65.81,272.35 17.12,0 34.24,-0 51.36,-0 19.46,0 40.66,-22.29 48.89,-56.37l23.19 -95.96z"/>
   <path class="fil0" d="M450.44 220.39l20.35 -84.21c-0.06,0 -0.12,0 -0.18,0 -57.59,0 -118.9,0 -169.01,0 -0,53.69 37.38,84.21 80.83,84.21 22.67,0 45.34,0 68.02,0z"/>
   <polygon class="fil0" points="185.08,601.74 171.91,601.74 142.88,632.44 142.88,601.74 132.15,601.74 132.15,662.78 142.88,662.78 142.88,645.08 152.38,635.31 173.22,662.78 186.22,662.78 159.71,627.99 "/>
   <polygon class="fil0" points="210.58,601.74 210.58,662.78 220.7,662.78 251.48,618.31 251.48,662.78 262.03,662.78 262.03,601.74 252,601.74 221.13,646.3 221.13,601.74 "/>
   <path class="fil0" d="M293.02 601.74l0 61.04 10.73 0 0 -19.62 12.12 0c7.03,0 12.86,-1.83 17.48,-5.49 4.62,-3.66 6.93,-8.78 6.93,-15.35 0,-6.28 -2.09,-11.28 -6.28,-15 -4.19,-3.72 -9.82,-5.58 -16.92,-5.58l-24.07 0zm10.73 31.74l0 -21.98 12.47 0c4.07,0 7.28,0.94 9.64,2.83 2.35,1.89 3.53,4.58 3.53,8.07 0,3.31 -1.19,5.99 -3.58,8.02 -2.38,2.03 -5.58,3.05 -9.59,3.05l-12.47 0z"/>
   <polygon class="fil0" points="366.48,601.74 366.48,662.78 412.18,662.78 412.18,653.19 377.21,653.19 377.21,636.8 407.82,636.8 407.82,627.2 377.21,627.2 377.21,611.33 411.74,611.33 411.74,601.74 "/>
   <path class="fil0" d="M449.18 601.74l0 12.03c0,7.09 -0.23,13.17 -0.7,18.23 -0.47,5.06 -1.03,9 -1.7,11.82 -0.67,2.82 -1.57,5.04 -2.7,6.67 -1.13,1.63 -2.21,2.66 -3.23,3.1 -1.02,0.44 -2.22,0.65 -3.62,0.65 -1.28,0 -2.44,-0.17 -3.49,-0.52l-1.05 8.81c2.44,0.64 4.91,0.96 7.41,0.96 3.26,0 5.97,-0.63 8.15,-1.88 2.18,-1.25 4.14,-3.52 5.89,-6.8 1.74,-3.28 3.02,-8.05 3.84,-14.3 0.81,-6.25 1.22,-14.11 1.22,-23.59l0 -5.49 21.1 0 0 51.36 10.73 0 0 -61.04 -41.86 0z"/>
   <path class="fil0" d="M522.03 601.74l0 61.04 24.59 0c7.09,0 12.7,-1.79 16.83,-5.36 4.13,-3.58 6.19,-8.44 6.19,-14.61 0,-6.05 -2.08,-10.74 -6.23,-14.08 -4.16,-3.34 -9.72,-5.01 -16.7,-5.01l-14.04 0 0 -21.98 -10.64 0zm10.64 51.45l0 -20.14 13.6 0c4.07,0 7.21,0.83 9.42,2.49 2.21,1.66 3.31,4.05 3.31,7.19 0,3.43 -1.09,6.03 -3.27,7.81 -2.18,1.77 -5.28,2.66 -9.29,2.66l-13.78 0z"/>
   <path class="fil0" d="M602.3 609.85c-5.93,6.11 -8.89,13.58 -8.89,22.41 0,8.89 2.96,16.38 8.89,22.46 5.93,6.08 13.31,9.11 22.15,9.11 5.41,0 10.03,-0.9 13.87,-2.7 3.84,-1.8 7.47,-4.51 10.9,-8.11l-6.89 -6.98c-2.85,2.67 -5.61,4.67 -8.28,5.97 -2.67,1.31 -5.76,1.96 -9.24,1.96 -5.76,0 -10.55,-2.11 -14.39,-6.32 -3.84,-4.22 -5.76,-9.35 -5.76,-15.39 0,-6.1 1.9,-11.25 5.71,-15.44 3.81,-4.19 8.62,-6.28 14.43,-6.28 5.93,0 11.63,2.53 17.09,7.59l6.89 -7.94c-3.26,-3.08 -6.73,-5.44 -10.42,-7.06 -3.69,-1.63 -8.18,-2.44 -13.47,-2.44 -9.13,0 -16.66,3.05 -22.59,9.16z"/>
   <polygon class="fil0" points="675.67,601.74 675.67,662.78 686.39,662.78 686.39,645.08 695.9,635.31 716.74,662.78 729.73,662.78 703.22,627.99 728.6,601.74 715.43,601.74 686.39,632.44 686.39,601.74 "/>
   <path class="fil0" d="M760.46 609.94c-6.05,6.16 -9.07,13.6 -9.07,22.32 0,8.84 2.99,16.31 8.98,22.41 5.99,6.1 13.6,9.16 22.85,9.16 9.24,0 16.89,-3.08 22.93,-9.24 6.05,-6.16 9.07,-13.6 9.07,-22.32 0,-8.84 -2.99,-16.31 -8.98,-22.41 -5.99,-6.1 -13.6,-9.16 -22.85,-9.16 -9.24,0 -16.89,3.08 -22.93,9.24zm2.18 22.32c0,-6.1 1.93,-11.25 5.8,-15.44 3.87,-4.19 8.79,-6.28 14.78,-6.28 5.99,0 10.94,2.11 14.87,6.32 3.92,4.22 5.89,9.35 5.89,15.39 0,6.1 -1.93,11.25 -5.8,15.43 -3.87,4.19 -8.79,6.28 -14.78,6.28 -5.99,0 -10.94,-2.11 -14.87,-6.32 -3.92,-4.22 -5.89,-9.35 -5.89,-15.39z"/>
   <polygon class="fil0" points="843.43,601.74 843.43,662.78 889.12,662.78 889.12,653.19 854.16,653.19 854.16,636.8 884.76,636.8 884.76,627.2 854.16,627.2 854.16,611.33 888.69,611.33 888.69,601.74 "/>
   <polygon class="fil0" points="53.93,543.72 70.29,459.99 103.97,459.99 109.8,430.35 5.83,430.35 -0,459.99 32.71,459.99 16.36,543.72 "/>
   <polygon class="fil0" points="122.44,430.35 99.76,543.72 194.02,543.72 199.85,514.89 143,514.89 145.92,499.99 194.02,499.99 199.53,472.46 151.59,472.46 154.18,459.18 208.76,459.18 214.59,430.35 "/>
   <path class="fil0" d="M231.43 430.35l-22.67 113.37 38.22 0 5.51 -27.86 19.6 0c11.45,0 21.51,-2 30.2,-5.99 8.69,-3.99 15.39,-9.61 20.08,-16.84 4.7,-7.23 7.05,-15.6 7.05,-25.1 0,-11.88 -4.16,-21.11 -12.47,-27.69 -8.31,-6.59 -20.03,-9.88 -35.14,-9.88l-50.37 0zm59.27 40.97c0,4.75 -1.46,8.45 -4.37,11.09 -2.91,2.64 -7.02,3.97 -12.31,3.97l-15.71 0 5.34 -26.56 12.79 0c9.5,0 14.25,3.83 14.25,11.5z"/>
   <polygon class="fil0" points="350.95,430.35 328.28,543.72 363.1,543.72 373.3,492.7 390.79,533.52 407.63,533.52 439.54,492.06 429.5,543.72 464.32,543.72 486.67,430.35 454.12,430.35 406.66,490.6 382.05,430.35 "/>
   <polygon class="fil0" points="506.91,430.35 484.24,543.72 520.84,543.72 571.53,484.93 559.22,543.72 596.8,543.72 619.47,430.35 583.03,430.35 532.34,489.3 544.48,430.35 "/>
   <polygon class="fil0" points="639.55,430.35 616.88,543.72 655.1,543.72 663.52,501.94 698.83,501.94 690.4,543.72 728.63,543.72 751.3,430.35 713.08,430.35 704.98,470.52 669.67,470.52 677.77,430.35 "/>
   <path class="fil0" d="M811.38 430.35l-72.23 113.37 40.33 0 11.34 -19.76 43.24 0 3.72 19.76 38.06 0 -26.88 -113.37 -37.57 0zm-4.86 66.08l16.68 -28.99 5.51 28.99 -22.19 0z"/>
   <path class="fil0" d="M925.56 430.35l-10.36 44.21c-2.27,9.83 -4.51,17.55 -6.72,23.16 -2.21,5.61 -4.59,9.66 -7.13,12.15 -2.54,2.48 -5.53,3.72 -8.99,3.72 -1.4,0 -2.75,-0.16 -4.05,-0.49l-8.1 30.61c4.53,1.4 9.77,2.11 15.71,2.11 9.5,0 17.3,-1.97 23.4,-5.91 6.1,-3.94 11.31,-10.45 15.63,-19.52 4.32,-9.07 8.31,-21.81 11.98,-38.22l5.02 -22.19 25.75 0 -16.68 83.73 37.57 0 22.67 -113.37 -95.71 0z"/>
  </g>
 </g>
</svg>
